<svg aria-hidden="true" style="position: absolute; width: 0; height: 0; overflow: hidden;" version="1.1" xmlns="http://www.w3.org/2000/svg" xmlns:xlink="http://www.w3.org/1999/xlink">
<defs>
<symbol id="icon-Frame-1" viewBox="0 0 269 32">
<path d="M268.076 32c-0 0-0.001 0-0.002 0-0.384 0-0.732-0.154-0.985-0.404l0 0-28.645-28.268-28.643 28.268c-0.258 0.24-0.605 0.388-0.987 0.388s-0.729-0.147-0.988-0.389l0.001 0.001-28.643-28.268-28.643 28.268c-0.258 0.24-0.606 0.388-0.988 0.388s-0.729-0.148-0.989-0.389l0.001 0.001-28.643-28.268-28.643 28.268c-0.258 0.24-0.605 0.387-0.987 0.387s-0.729-0.147-0.988-0.388l0.001 0.001-28.645-28.268-28.642 28.268c-0.258 0.24-0.605 0.387-0.987 0.387s-0.729-0.147-0.988-0.388l0.001 0.001-29.635-29.243c-0.253-0.248-0.409-0.593-0.409-0.974s0.157-0.727 0.409-0.974l0-0c0.254-0.25 0.603-0.405 0.988-0.405s0.734 0.154 0.988 0.405l-0-0 28.643 28.268 28.645-28.268c0.254-0.25 0.602-0.404 0.987-0.404s0.733 0.154 0.987 0.404l-0-0 28.645 28.268 28.643-28.268c0.258-0.24 0.606-0.388 0.988-0.388s0.729 0.147 0.989 0.389l-0.001-0.001 28.643 28.268 28.643-28.268c0.258-0.24 0.605-0.388 0.987-0.388s0.729 0.147 0.988 0.389l-0.001-0.001 28.643 28.268 28.643-28.268c0.258-0.24 0.606-0.388 0.988-0.388s0.729 0.147 0.989 0.389l-0.001-0.001 29.632 29.243c0.253 0.248 0.409 0.593 0.409 0.974s-0.157 0.727-0.409 0.974l-0 0c-0.253 0.25-0.602 0.404-0.986 0.404-0.001 0-0.002 0-0.003 0h0z"></path>
</symbol>
<symbol id="icon-tree" viewBox="0 0 21 32">
<path fill="#3a5f56" style="fill: var(--color1, #3a5f56)" d="M21.171 20.053l-5.277-9.12v-0.107c0-0.053 0.053-0.053 0.108-0.053h0.98c0.435 0 0.871-0.267 1.088-0.64s0.163-0.853-0.109-1.227l-6.419-8.427c-0.219-0.32-0.544-0.48-0.981-0.48-0.435 0-0.761 0.16-0.979 0.48l-6.309 8.427c-0.272 0.373-0.327 0.853-0.109 1.227 0.216 0.384 0.621 0.64 1.085 0.64 0.001 0 0.002 0 0.003 0h1.577c0.055 0 0.055 0 0.109 0.053v0.107l-5.767 9.067c-0.107 0.183-0.171 0.403-0.171 0.638 0 0.194 0.043 0.378 0.12 0.543l-0.003-0.008c0.216 0.373 0.597 0.587 1.032 0.587h8.923v9.707c0 0.32 0.217 0.533 0.544 0.533s0.544-0.213 0.544-0.533v-9.653h8.976c0.436 0 0.816-0.213 1.035-0.587 0.102-0.167 0.163-0.37 0.163-0.587s-0.061-0.419-0.166-0.592l0.003 0.005zM20.191 20.693c0 0.053-0.053 0.053-0.108 0.053h-18.987c-0.055 0-0.055 0-0.109-0.053v-0.107l5.767-9.067c0.107-0.183 0.17-0.403 0.17-0.638 0-0.194-0.043-0.378-0.12-0.543l0.003 0.008c-0.206-0.353-0.583-0.587-1.015-0.587-0.006 0-0.012 0-0.018 0h-1.578c-0.053 0-0.053 0-0.108-0.053v-0.107l6.419-8.48c0-0.053 0.055-0.053 0.055-0.053s0.055 0 0.109 0.053l6.365 8.427c0 0.053 0.053 0.053 0 0.107 0 0.053-0.055 0.053-0.109 0.053h-0.979c-0.006-0-0.013-0-0.020-0-0.432 0-0.809 0.234-1.012 0.581l-0.003 0.006c-0.102 0.167-0.163 0.37-0.163 0.587s0.061 0.419 0.166 0.592l-0.003-0.005 5.277 9.12c0.055 0 0.055 0.053 0 0.107z"></path>
</symbol>
<symbol id="icon-snowman" viewBox="0 0 27 32">
<path fill="#3a5f56" style="fill: var(--color1, #3a5f56)" d="M16.040 7.307l1.787-3.040c0.051-0.075 0.081-0.167 0.081-0.267s-0.030-0.192-0.082-0.268l0.001 0.002-2.003-3.467c-0.103-0.161-0.28-0.267-0.483-0.267-0.002 0-0.004 0-0.005 0h-4.060c-0.001 0-0.002 0-0.004 0-0.202 0-0.38 0.105-0.482 0.264l-0.001 0.002-1.949 3.467c-0.051 0.075-0.081 0.167-0.081 0.267s0.030 0.192 0.082 0.268l-0.001-0.002 1.787 3.040c-5.684 1.227-9.96 6.24-9.96 12.213 0 6.88 5.684 12.48 12.667 12.48s12.667-5.6 12.667-12.48c0-5.973-4.276-10.987-9.96-12.213zM11.653 1.067h3.413l1.677 2.933-1.679 2.933h-3.411l-1.677-2.933 1.676-2.933zM13.333 30.933c-6.387 0-11.584-5.12-11.584-11.413s5.196-11.413 11.584-11.413c6.387 0 11.584 5.12 11.584 11.413s-5.196 11.413-11.584 11.413z"></path>
</symbol>
<symbol id="icon-basket" viewBox="0 0 32 32">
<path d="M4.905 3.765h-4.905v-3.765h8.271l0.845 7.529h21.001v11.177l-23.021 4.578-2.193-19.52zM29.176 32c-1.559 0-2.824-1.264-2.824-2.824s1.264-2.824 2.824-2.824v0c1.559 0 2.824 1.264 2.824 2.824s-1.264 2.824-2.824 2.824v0zM10.353 32c-1.559 0-2.824-1.264-2.824-2.824s1.264-2.824 2.824-2.824v0c1.559 0 2.824 1.264 2.824 2.824s-1.264 2.824-2.824 2.824v0z"></path>
</symbol>
<symbol id="icon-arch" viewBox="0 0 32 32">
<path fill="#3a5f56" style="fill: var(--color1, #3a5f56)" d="M16 2c8.107 0 14.987 4.667 16 10.801v0.263c0 0.053-0.053 0.053-0.053 0.104-0.053 0-0.053 0.053-0.053 0.107 0 0 0 0.051-0.053 0.051s-0.053 0.053-0.107 0.053c-0.053 0.052-0.053 0.052-0.107 0.052h-3.68v15.52h1.067c0.32 0 0.533 0.211 0.533 0.525s-0.213 0.524-0.533 0.524h-9.067c-0.32 0-0.533-0.209-0.533-0.524s0.213-0.524 0.533-0.524h1.28v-15.523h-10.293v15.468h1.173c0.32 0 0.533 0.209 0.533 0.524s-0.213 0.525-0.533 0.525h-9.067c-0.32 0-0.533-0.211-0.533-0.525s0.213-0.524 0.533-0.524h1.173v-15.519h-3.947c-0.053 0-0.107-0.053-0.107-0.053l-0.013-0.013-0.040-0.039c0-0.053-0.053-0.053-0.053-0.105-0.053-0.052-0.053-0.052-0.053-0.104v-0.264c1.013-6.133 7.893-10.8 16-10.8zM9.867 13.431h-4.533v15.52h4.533v-15.52zM26.827 13.431h-4.533v15.52h4.533v-15.52zM16 3.049c-7.307 0-13.547 3.984-14.827 9.333h29.653c-1.28-5.349-7.52-9.333-14.827-9.333zM19.093 8.133c0.32 0 0.533 0.209 0.533 0.524s-0.213 0.525-0.533 0.525h-6.133c-0.32 0-0.533-0.211-0.533-0.525s0.213-0.524 0.533-0.524h6.133z"></path>
</symbol>
<symbol id="icon-fish" viewBox="0 0 32 32">
<path fill="#3a5f56" style="fill: var(--color1, #3a5f56)" d="M15.515 0c0.8 0 1.493 0.64 1.493 1.493v3.040c0 0.96-0.32 1.92-0.853 2.72 0.533 0.8 0.853 1.76 0.853 2.72v2.133c0 0.8-0.64 1.493-1.493 1.493-2.187 0-4.105-1.493-4.692-3.573-0.587 0.213-1.12 0.64-1.653 1.227-0.373 0.48-0.48 1.173-0.16 1.76s0.853 0.96 1.547 0.96c0.32 0 0.533 0.213 0.533 0.533s-0.213 0.533-0.533 0.533c-1.067 0-2.027-0.587-2.507-1.547s-0.32-2.080 0.32-2.933c0.907-0.96 1.76-1.547 2.773-1.76 0.16-0.053 0.32-0.053 0.427 0.053s0.213 0.213 0.213 0.373c0.253 1.876 1.843 3.307 3.768 3.307 0.006 0 0.012 0 0.018-0h-0.001c0.213 0 0.427-0.213 0.427-0.427v-2.133c0-0.853-0.32-1.707-0.853-2.347-0.075-0.094-0.12-0.215-0.12-0.347s0.045-0.252 0.121-0.348l-0.001 0.001c0.533-0.64 0.853-1.493 0.853-2.347v-3.093c0-0.213-0.213-0.427-0.427-0.427-2.133 0-3.84 1.76-3.84 3.84 0 0.48-0.532 0.533-0.745 0.533-2.667 0.213-4.959 1.227-6.824 3.093-2.72 2.667-3.733 6.507-2.773 10.133 0.96 3.733 3.787 6.56 7.465 7.52 0.16 0.053 0.32 0.16 0.373 0.32s0.053 0.32-0.053 0.48c-1.067 1.547-2.080 2.293-2.987 2.987l-0.16 0.16c-0.267 0.16-0.213 0.373-0.16 0.48s0.16 0.32 0.427 0.32c3.52 0 6.825-1.547 9.064-4.213 0.107-0.16 0.267-0.213 0.427-0.213l2.507 0.053c6.344 0 11.783-4.693 12.636-11.040 0-0.16-0.053-0.267-0.107-0.32s-0.16-0.16-0.32-0.16h-11.464c-0.32 0-0.533-0.213-0.533-0.533s0.213-0.533 0.533-0.533h11.464c0.427 0 0.853 0.213 1.12 0.533 0.267 0.373 0.427 0.8 0.373 1.173-0.907 6.827-6.773 11.947-13.651 11.947h-2.293c-2.382 2.688-5.843 4.373-9.697 4.373-0.002 0-0.003 0-0.005 0h0c-0.693 0-1.227-0.373-1.44-1.013-0.213-0.587 0-1.28 0.533-1.653l0.213-0.16c0.747-0.587 1.493-1.12 2.293-2.133-3.733-1.28-6.505-4.213-7.519-8.053-1.12-4.053 0-8.267 2.987-11.253 1.973-1.973 4.425-3.093 7.251-3.36 0.212-2.453 2.345-4.373 4.851-4.373zM25.805 17.013c0.747 0 1.387 0.64 1.387 1.387s-0.64 1.333-1.387 1.387c-0.747 0-1.387-0.64-1.387-1.387s0.64-1.387 1.387-1.387z"></path>
</symbol>
<symbol id="icon-soup" viewBox="0 0 32 32">
<path fill="#3a5f56" style="fill: var(--color1, #3a5f56)" d="M30.124 13.305c0.533 0 1.013 0.209 1.387 0.575 0.373 0.367 0.533 0.837 0.48 1.36-0.32 3.507-1.92 6.805-4.479 9.317-0.96 0.995-2.079 1.779-3.251 2.46v0.523c0 1.36-1.12 2.46-2.507 2.46h-11.511c-1.387 0-2.507-1.099-2.507-2.46v-0.523c-4.369-2.46-7.248-6.857-7.728-11.777-0.053-0.471 0.16-0.995 0.48-1.36 0.373-0.367 0.853-0.576 1.387-0.576h28.249zM29.644 19.689h-27.343c1.28 2.721 3.465 5.024 6.236 6.543 0.16 0.104 0.267 0.261 0.267 0.471v0.785c0 0.785 0.64 1.413 1.44 1.413h11.513c0.8 0 1.44-0.628 1.44-1.413v-0.785c0-0 0-0.001 0-0.001 0-0.199 0.106-0.372 0.264-0.468l0.002-0.001c1.267-0.666 2.355-1.468 3.305-2.409l-0.001 0.001c1.227-1.204 2.185-2.616 2.879-4.133zM30.177 14.299h-28.304c-0.213 0-0.427 0.105-0.587 0.263-0.133 0.139-0.214 0.328-0.214 0.536 0 0.013 0 0.027 0.001 0.040l-0-0.002c0.107 1.204 0.373 2.408 0.8 3.507h28.251c0.427-1.151 0.693-2.303 0.853-3.507 0.001-0.011 0.001-0.025 0.001-0.038 0-0.208-0.082-0.397-0.215-0.537l0 0c-0.149-0.155-0.356-0.253-0.585-0.263l-0.002-0zM8.111 2c0.32 0 0.533 0.209 0.533 0.524v6.227c0 0.315-0.213 0.524-0.533 0.524s-0.533-0.261-0.533-0.523v-6.228c0-0.315 0.213-0.524 0.533-0.524zM23.888 2c0.32 0 0.533 0.209 0.533 0.524v6.227c0 0.315-0.213 0.524-0.533 0.524-0.267 0-0.533-0.261-0.533-0.523v-6.228c0-0.315 0.213-0.524 0.533-0.524zM15.999 2c0.32 0 0.533 0.209 0.533 0.524v6.227c0 0.315-0.213 0.524-0.533 0.524s-0.533-0.261-0.533-0.523v-6.228c0-0.315 0.213-0.524 0.533-0.524z"></path>
</symbol>
<symbol id="icon-family" viewBox="0 0 32 32">
<path fill="#3a5f56" style="fill: var(--color1, #3a5f56)" d="M6.773 14.949c1.76 0 3.467 0.736 4.693 1.944 0.587 0.577 1.067 1.261 1.387 1.997 0.811-0.592 1.828-0.947 2.928-0.947 0.002 0 0.004 0 0.006 0h-0c1.28 0 2.4 0.42 3.253 1.156 1.044-2.458 3.437-4.151 6.226-4.151 0.005 0 0.010 0 0.014 0h-0.001c1.813 0 3.467 0.683 4.747 1.944 1.218 1.177 1.973 2.826 1.973 4.651 0 0.009-0 0.018-0 0.027v-0.001 2.417c0 1.472-1.227 2.68-2.72 2.68h-26.56c-1.493 0-2.72-1.208-2.72-2.68v-2.207c0-1.84 0.747-3.627 2.080-4.939 1.28-1.209 2.933-1.945 4.693-1.893zM15.787 18.943c-2.187 0-3.947 1.733-3.947 3.888v2.785h7.893v-2.785c0-2.101-1.76-3.888-3.947-3.888zM6.827 15.947h-0.053c-1.44 0-2.827 0.577-3.893 1.628-1.173 1.156-1.813 2.68-1.813 4.204v2.207c0 0.893 0.747 1.629 1.653 1.629v-0.053h8.107v-2.784c0-1.209 0.48-2.365 1.227-3.205-0.287-0.782-0.724-1.45-1.279-1.997l-0.001-0.001c-1.008-1.006-2.399-1.628-3.935-1.628-0.004 0-0.008 0-0.012 0h0.001zM25.227 16c-2.507 0-4.693 1.576-5.387 3.941 0.587 0.787 0.96 1.787 0.96 2.889v2.785h8.48c0.907 0 1.653-0.736 1.653-1.629h-0.053v-2.417c0-1.471-0.587-2.889-1.653-3.94-1.026-1.007-2.435-1.629-3.988-1.629-0.004 0-0.009 0-0.013 0h0.001zM15.84 10.64c1.547 0 2.773 1.209 2.773 2.733 0 1.523-1.227 2.732-2.773 2.732s-2.773-1.209-2.773-2.733c0-1.523 1.227-2.732 2.773-2.732zM15.84 11.744c-0.96 0-1.707 0.736-1.707 1.681 0 0.947 0.747 1.681 1.707 1.681s1.707-0.736 1.707-1.681c0-0.947-0.747-1.681-1.707-1.681zM6.72 5.333c2.080 0 3.787 1.681 3.787 3.731s-1.707 3.731-3.787 3.731c-2.080 0-3.787-1.681-3.787-3.731s1.707-3.731 3.787-3.731zM25.28 5.333c2.080 0 3.787 1.681 3.787 3.731s-1.707 3.731-3.787 3.731c-2.080 0-3.787-1.681-3.787-3.731s1.707-3.731 3.787-3.731zM6.72 6.384c-1.493 0-2.72 1.209-2.72 2.68s1.227 2.68 2.72 2.68 2.72-1.209 2.72-2.68c0-1.471-1.227-2.68-2.72-2.68zM25.28 6.384c-1.493 0-2.72 1.209-2.72 2.68s1.227 2.68 2.72 2.68 2.72-1.211 2.72-2.68c0-1.471-1.227-2.68-2.72-2.68z"></path>
</symbol>
<symbol id="icon-arrow" viewBox="0 0 32 32">
<path fill="#3a5f56" style="fill: var(--color1, #3a5f56)" d="M29.888 14.037l-5.563-5.49c-0.376-0.339-0.876-0.547-1.425-0.547-0.493 0-0.946 0.167-1.307 0.448l0.005-0.004c-0.362 0.328-0.589 0.801-0.589 1.326 0 0.471 0.182 0.899 0.479 1.218l-0.001-0.001 3.165 3.152h-22.688c-1.094 0-1.965 0.813-1.965 1.829 0 1.018 0.872 1.83 1.963 1.83h22.798l-3.163 3.152c-0.765 0.712-0.656 1.83 0.109 2.541 0.326 0.304 0.872 0.509 1.309 0.509 0.544 0 0.981-0.203 1.418-0.509l5.563-5.488c0.982-1.221 0.982-2.848-0.109-3.966z"></path>
</symbol>
<symbol id="icon-bread" viewBox="0 0 32 32">
<path fill="#3a5f56" style="fill: var(--color1, #3a5f56)" d="M31.68 1.309l-0.16-0.48c-0.067-0.173-0.201-0.306-0.369-0.372l-0.004-0.002-0.48-0.16c-0.107-0.053-2.293-0.64-5.757 0-1.973 0.373-3.945 1.12-5.864 2.185-1.067 0.587-2.080 1.225-3.147 2.024h-0.053c-1.415 1.061-2.667 2.144-3.84 3.307l0.003-0.003c-3.68 3.673-6.822 7.884-9.297 12.505l-0.139 0.284c-1.813 3.464-2.4 5.808-2.453 5.915l-0.107 0.907c-0.053 0.265 0.053 0.532 0.373 0.639l2.72 0.907 0.907 2.716c0.053 0.16 0.267 0.32 0.48 0.32h0.16l0.8-0.213c0.107 0 2.451-0.64 5.916-2.451 2.507-1.28 5.971-3.357 9.703-6.553 1.013-0.853 2.027-1.813 3.093-2.824 2.237-2.239 4.051-4.583 5.329-6.981 1.067-1.917 1.76-3.943 2.187-5.861 0.693-3.516 0.053-5.7 0-5.807zM12.861 8.608c1.013-1.012 2.080-1.917 3.092-2.771l4.159 16.305c-2.164 1.86-4.571 3.569-7.129 5.046l-0.229 0.122-3.679-14.493c1.241-1.532 2.479-2.905 3.785-4.209l0.001-0.001zM10.888 28.376c-3.359 1.76-5.597 2.345-5.704 2.345l-0.373 0.107-0.8-2.451c-0.048-0.154-0.166-0.272-0.317-0.319l-0.003-0.001-2.505-0.853 0.107-0.32c0-0.107 0.64-2.344 2.347-5.7 1.475-2.778 2.995-5.148 4.684-7.384l-0.1 0.138 3.573 13.96c-0.32 0.16-0.64 0.32-0.907 0.48zM30.667 6.852c-0.373 1.864-1.067 3.729-2.080 5.541-1.225 2.291-2.984 4.583-5.171 6.767-0.8 0.8-1.6 1.545-2.345 2.237l-4.159-16.197c0.907-0.64 1.813-1.227 2.72-1.705 1.867-1.013 3.732-1.705 5.544-2.077 2.4-0.48 4.052-0.267 4.797-0.107l-2.345 2.343c-0.213 0.213-0.213 0.533 0 0.747 0.107 0.107 0.267 0.16 0.373 0.16s0.267-0.053 0.373-0.16l2.347-2.345c0.213 0.693 0.372 2.397-0.053 4.796z"></path>
</symbol>
</defs>
</svg>
